<svg id="logo" xmlns="http://www.w3.org/2000/svg" viewBox="0 0 476 87.9"><defs><style>.cls-1{fill:#0088f5;}</style></defs><title>logo</title><path class="cls-1" d="M140.8,71v7.5H104.3V10.8h8.8V71Z"/><path class="cls-1" d="M195.7,75.2a42.7,42.7,0,0,1-18.4,4.6,21.6,21.6,0,0,1-11.8-3.3,23.5,23.5,0,0,1-8.3-9.3,27.7,27.7,0,0,1-3.1-13,29,29,0,0,1,3-12.8,22.9,22.9,0,0,1,8.3-9.6,21.2,21.2,0,0,1,11.9-3.4,17.4,17.4,0,0,1,13.9,6.2c3.5,4.1,5.3,10.5,5.3,19.1v1.7H162.8a20.5,20.5,0,0,0,2.1,9.3,15.1,15.1,0,0,0,5.6,6.3,14.7,14.7,0,0,0,7.8,2.1c5.2,0,11-1.7,17.3-5.2v7.3ZM163.3,49.3h24.3V48.1a14.8,14.8,0,0,0-2.9-9.5,9.6,9.6,0,0,0-7.8-3.5,11.6,11.6,0,0,0-8.5,3.6C166,41.1,164.3,44.7,163.3,49.3Z"/><path class="cls-1" d="M249.2,75.2a42.7,42.7,0,0,1-18.4,4.6A21.6,21.6,0,0,1,219,76.5a23.5,23.5,0,0,1-8.3-9.3,27.7,27.7,0,0,1-3.1-13,29,29,0,0,1,3-12.8,22.9,22.9,0,0,1,8.3-9.6,21.2,21.2,0,0,1,11.9-3.4,17.4,17.4,0,0,1,13.9,6.2c3.5,4.1,5.3,10.5,5.3,19.1v1.7H216.3a20.5,20.5,0,0,0,2.1,9.3A15.1,15.1,0,0,0,224,71a14.7,14.7,0,0,0,7.8,2.1c5.2,0,11-1.7,17.3-5.2v7.3ZM216.9,49.3h24.3V48.1a14.8,14.8,0,0,0-2.9-9.5,9.6,9.6,0,0,0-7.8-3.5,11.6,11.6,0,0,0-8.5,3.6C219.4,41.1,217.8,44.7,216.9,49.3Z"/><path class="cls-1" d="M262.3,78.4V8.1h8.1V40.4a27.3,27.3,0,0,1,8.4-8.8,18.3,18.3,0,0,1,9.8-3.2,14.3,14.3,0,0,1,7.6,2.1,11.7,11.7,0,0,1,4.8,5.1,19.9,19.9,0,0,1,1.5,4.9,81.5,81.5,0,0,1,.4,10.7V78.4h-8.1V50.2c0-4.7-.2-7.8-.7-9.3a7.9,7.9,0,0,0-2.5-3.7,5.9,5.9,0,0,0-3.9-1.4c-2.8,0-5.9,1.4-9.2,4.1a31.6,31.6,0,0,0-8.1,10.2V78.5h-8.1Z"/><path class="cls-1" d="M347.9,67.5a26.2,26.2,0,0,1-8.9,9.2,18.9,18.9,0,0,1-9.6,3.1c-4.1,0-7.7-1.8-11-5.3s-4.9-8.8-4.9-16a34.9,34.9,0,0,1,3.2-15.1,28,28,0,0,1,8.6-10.5A22.4,22.4,0,0,1,338.7,29c1.5,0,3.9.2,7,.5l2.1.2h8.1V64.1c0,5.9.6,10.6,1.9,14.3h-8.5C348.8,75.8,348.3,72.1,347.9,67.5Zm0-9.6V37a30,30,0,0,0-8-1.1,15.7,15.7,0,0,0-12.5,5.8c-3.3,3.9-5,9.1-5,15.8,0,4.8.9,8.5,2.7,10.9s3.9,3.7,6.2,3.7,5.3-1.3,8.4-3.8A35.3,35.3,0,0,0,347.9,57.9Z"/><path class="cls-1" d="M385.3,78.4,364.2,29.7H373l16.7,38.6,17-38.6h8.1L393.6,78.4Z"/><path class="cls-1" d="M463.4,75.2A42.7,42.7,0,0,1,445,79.8a21.6,21.6,0,0,1-11.8-3.3,23.5,23.5,0,0,1-8.3-9.3,27.7,27.7,0,0,1-3.1-13,29,29,0,0,1,3-12.8,22.9,22.9,0,0,1,8.3-9.6A21.2,21.2,0,0,1,445,28.4a17.4,17.4,0,0,1,13.9,6.2c3.5,4.1,5.3,10.5,5.3,19.1v1.7H430.7a20.5,20.5,0,0,0,2.1,9.3,15.1,15.1,0,0,0,5.6,6.3,14.7,14.7,0,0,0,7.8,2.1c5.2,0,11-1.7,17.3-5.2v7.3ZM431.1,49.3h24.3V48.1a14.8,14.8,0,0,0-2.9-9.5,9.6,9.6,0,0,0-7.8-3.5,11.6,11.6,0,0,0-8.5,3.6C433.7,41.1,431.9,44.7,431.1,49.3Z"/><path class="cls-1" d="M47.5,35.9a9.4,9.4,0,1,1-9.4,9.4A9.4,9.4,0,0,1,47.5,35.9ZM57.7,24.4a23.1,23.1,0,0,0-10.2-2.3l-3.1.2-1.5-7.7a5.4,5.4,0,1,0-2.6.6l1.5,7.7a23.2,23.2,0,0,0-10.3,5.8l-3.1-2.8a3,3,0,0,0-2.9-3.9,3,3,0,1,0,0,6l1.1-.2,3.1,2.8A23.1,23.1,0,0,0,25,39.8l-2.6-.5a4,4,0,1,0-.5,2.6l2.6.5a23.6,23.6,0,0,0-.2,2.9,23.1,23.1,0,0,0,2.8,11.1l-11,6.8a5.3,5.3,0,1,0,1.4,2.3l11-6.8a23.3,23.3,0,0,0,10.5,8.3l-2.8,8.5a4,4,0,1,0,2.5.8l2.8-8.6a23.2,23.2,0,0,0,5.9.8l2.7-.2.2,1.2a3,3,0,1,0,2.6-.5l-.2-1.2a23.1,23.1,0,0,0,10.3-5.4l6.4,6.2a5.4,5.4,0,1,0,1.9-1.9L65,60.5a23.1,23.1,0,0,0,5.7-13.9h8.2a4,4,0,1,0,0-2.7H70.7a23.1,23.1,0,0,0-5.6-13.8L77.7,18a4,4,0,0,0,1.8.4,4,4,0,1,0-3.7-2.3L63.3,28.2A23.4,23.4,0,0,0,60,25.8l3.4-6.1h.7a4,4,0,1,0-3-1.4Z"/></svg>